<svg xmlns="http://www.w3.org/2000/svg" xmlns:xlink="http://www.w3.org/1999/xlink" width="40" zoomAndPan="magnify" viewBox="0 0 30 30.000001" height="40" preserveAspectRatio="xMidYMid meet" version="1.0"><defs><g/></defs><g fill="#4ec9b0" fill-opacity="1"><g transform="translate(5.129033, 19.959679)"><g><path d="M 4.9375 -2.296875 C 5.4375 -2.296875 5.835938 -2.4375 6.140625 -2.71875 C 6.453125 -3.007812 6.609375 -3.390625 6.609375 -3.859375 L 6.609375 -8 C 6.609375 -8.457031 6.453125 -8.828125 6.140625 -9.109375 C 5.835938 -9.398438 5.4375 -9.546875 4.9375 -9.546875 L 3.5 -9.546875 L 3.5 -2.296875 Z M 1.03125 0 L 1.03125 -11.84375 L 4.9375 -11.84375 C 5.5625 -11.84375 6.128906 -11.75 6.640625 -11.5625 C 7.148438 -11.382812 7.582031 -11.125 7.9375 -10.78125 C 8.300781 -10.445312 8.582031 -10.046875 8.78125 -9.578125 C 8.976562 -9.109375 9.078125 -8.582031 9.078125 -8 L 9.078125 -3.859375 C 9.078125 -3.285156 8.976562 -2.757812 8.78125 -2.28125 C 8.582031 -1.800781 8.300781 -1.394531 7.9375 -1.0625 C 7.582031 -0.726562 7.148438 -0.46875 6.640625 -0.28125 C 6.128906 -0.09375 5.5625 0 4.9375 0 Z M 1.03125 0 "/></g></g></g><g fill="#4ec9b0" fill-opacity="1"><g transform="translate(14.995442, 19.959679)"><g><path d="M 0.90625 -4.28125 L 0.90625 -6.578125 L 3.703125 -6.578125 L 3.703125 -9.375 L 6.171875 -9.375 L 6.171875 -6.578125 L 8.96875 -6.578125 L 8.96875 -4.28125 L 6.171875 -4.28125 L 6.171875 -1.484375 L 3.703125 -1.484375 L 3.703125 -4.28125 Z M 0.90625 -4.28125 "/></g></g></g></svg>